inDegrees=no
num_controls=7
num_derivatives=13
num_iterations=72
num_multipliers=7
num_parameters=0
num_slacks=7
num_states=26
objective=0.470125
objective_accelerations=0.062000
objective_balance=0.001891
objective_effort=0.020253
objective_height=0.376181
objective_ligament=0.009800
solver_duration=997.453859
status=Solve_Succeeded
success=true
DataType=double
version=3
OpenSimVersion=4.5
endheader
time	/jointset/ground_pelvis/pelvis_tilt/value	/jointset/ground_pelvis/pelvis_tx/value	/jointset/ground_pelvis/pelvis_ty/value	/jointset/hip_l/hip_flexion_l/value	/jointset/hip_l/hip_adduction_l/value	/jointset/hip_l/hip_rotation_l/value	/jointset/back/lumbar_extension/value	/jointset/patellofemoral_l/patellar_flexion_l/value	/jointset/knee_l/knee_flexion_l/value	/jointset/knee_l/knee_adduction_l/value	/jointset/knee_l/knee_rotation_l/value	/jointset/ankle_l/ankle_angle_l/value	/jointset/subtalar_l/subtalar_angle_l/value	/jointset/ground_pelvis/pelvis_tilt/speed	/jointset/ground_pelvis/pelvis_tx/speed	/jointset/ground_pelvis/pelvis_ty/speed	/jointset/hip_l/hip_flexion_l/speed	/jointset/hip_l/hip_adduction_l/speed	/jointset/hip_l/hip_rotation_l/speed	/jointset/back/lumbar_extension/speed	/jointset/patellofemoral_l/patellar_flexion_l/speed	/jointset/knee_l/knee_flexion_l/speed	/jointset/knee_l/knee_adduction_l/speed	/jointset/knee_l/knee_rotation_l/speed	/jointset/ankle_l/ankle_angle_l/speed	/jointset/subtalar_l/subtalar_angle_l/speed	/forceset/tau_hip_flexion_l	/forceset/tau_hip_adduction_l	/forceset/tau_hip_rotation_l	/forceset/tau_knee_flexion_l	/forceset/tau_ankle_angle_l	/forceset/tau_subtalar_angle_l	/forceset/tau_lumbar_extension	lambda_cid13_p0	lambda_cid13_p1	lambda_cid13_p2	lambda_cid13_p3	lambda_cid13_p4	lambda_cid13_p5	lambda_cid14_p0	/jointset/ground_pelvis/pelvis_tilt/accel	/jointset/ground_pelvis/pelvis_tx/accel	/jointset/ground_pelvis/pelvis_ty/accel	/jointset/hip_l/hip_flexion_l/accel	/jointset/hip_l/hip_adduction_l/accel	/jointset/hip_l/hip_rotation_l/accel	/jointset/back/lumbar_extension/accel	/jointset/patellofemoral_l/patellar_flexion_l/accel	/jointset/knee_l/knee_flexion_l/accel	/jointset/knee_l/knee_adduction_l/accel	/jointset/knee_l/knee_rotation_l/accel	/jointset/ankle_l/ankle_angle_l/accel	/jointset/subtalar_l/subtalar_angle_l/accel	gamma_cid13_p0	gamma_cid13_p1	gamma_cid13_p2	gamma_cid13_p3	gamma_cid13_p4	gamma_cid13_p5	gamma_cid14_p0
1	-0.8397687924569315	-0.1552919401488514	0.6192753815116796	2.009156714123133	-0.3390281963813159	0.04452834014933694	-0.4363172684646175	1.046118914889239	1.046118914888939	-0.01295510616875154	-0.1744996203613243	0.004853358238649762	0.08277279861627228	-0.1807994179110062	0.008562872972559379	0.03022452965153854	0.02881894603477364	-0.007371457659959214	-0.05581838559280503	0.0001190584043071229	-0.1727710193944306	-0.172771019394421	-0.01562665901258169	0.0003967330448024058	-0.03402704073726935	-0.01692199383727368	-0.3823383867331253	0.02458393063611646	-0.005182315371729686	-0.1258392515932613	0.1164460262989942	-0.005281085443829677	0.2823371694289201	5.883915587675941	3.659635536694239	-3.601597015381765	-9.135646661699546	-545.6443599777705	-45.94908606717232	-2.448994291978163	3.260631481972134	0.8040341088574197	1.774705887028769	-7.710376525486324	-0.2311628028724169	-1.266472057414604	-0.02483886079594886	-3.840581794715773	-3.840581794715692	-0.4231138379638902	-0.01700408878460332	0.3440354749085714	-0.1180204990351152	-1.286909855144556e-08	-6.244263862663838e-08	-1.144707094514773e-09	2.548309904712199e-09	-9.825379428257077e-09	2.375416847471345e-08	-1.456396958169167e-08
1.01	-0.8414148110590652	-0.1551661917809753	0.619666092441281	2.00906083792909	-0.3391127330278833	0.0439076933321486	-0.4363159915811926	1.044199267268028	1.0441992672679	-0.01313212453071327	-0.1744952138347269	0.004530098796214766	0.08259836396647217	-0.1483911739388044	0.01659177194177233	0.0479026969663854	-0.04797622127595907	-0.009531221437923836	-0.06830350335485112	0.0001360383374992438	-0.2111433087224634	-0.2111433087224551	-0.01978046146313408	0.0004828111608520986	-0.03064055356496936	-0.017964944033337	-0.3825949669636799	0.02478706493561346	-0.005168423368775234	-0.1249567034532171	0.1159592216752055	-0.005168491431805661	0.2824282689766036	5.757812642983108	3.604173945722318	-3.560039341681144	-9.234115368002616	-545.3897479010086	-45.89599473854089	-2.492583056785063	3.232888078408385	0.8030625287665462	1.762125723906356	-7.661394629412269	-0.2076754506664883	-1.238425254923994	0.01492442883190267	-3.833269686204906	-3.833269686205101	-0.4120471588430591	0.02115208701926853	0.3335948138448688	-0.09742075083654721	-1.177960544556129e-08	-7.273959383329633e-08	-7.892261749755071e-09	-4.742128051681677e-09	-1.264397303595264e-08	3.252779175739713e-08	-1.696001664290483e-08
1.02	-0.8427363537767679	-0.1549600054758442	0.6202331357580696	2.008197548502827	-0.3392187257693117	0.04316241661346951	-0.436314553296743	1.041896353316665	1.041896353316714	-0.01335078765922667	-0.1744899988619277	0.004240232120594108	0.08241350212052249	-0.1159042410240292	0.02465046042354106	0.0654910070889862	-0.1246637004085093	-0.01166267663220764	-0.08074436588987541	0.0001513386089028642	-0.2494242854248114	-0.2494242854248046	-0.02395561232337218	0.000558422285680596	-0.02734848737450294	-0.01900743306718519	-0.3828515471942522	0.02499019923510173	-0.005154531365790424	-0.1240741553131716	0.1154724170514165	-0.005055897419791013	0.2825193685242644	5.628002773766897	3.547894927835867	-3.516675956557795	-9.35547760645615	-545.2237036193443	-45.84300652530209	-2.545402356219733	3.27636927048676	0.8099920113686141	1.756734448579569	-7.688838889849839	-0.2255010861362867	-1.257621012010287	-0.02517479315366691	-3.82231926957881	-3.822319269578781	-0.4273835199010561	-0.01909748702890155	0.3251512785419149	-0.1179282665921077	-1.00836634507002e-08	-8.286874204635606e-08	-1.914326868320941e-08	-1.240655984560505e-08	-1.466123835609573e-08	3.779149034658893e-08	-1.850239704820267e-08
1.03	-0.8437327136875177	-0.1546730728180299	0.620975523335157	2.006568161416705	-0.3393458504825211	0.04229301856643061	-0.4363130045519099	1.039211206813762	1.039211206813834	-0.01361129398007871	-0.1744840477790945	0.003982786754657303	0.08221825002770533	-0.08336405174016499	0.03274195056036191	0.08296254057418738	-0.2011705264606079	-0.01375029797739602	-0.09312955470538596	0.000156130073341897	-0.2875776825411847	-0.2875776825411809	-0.02813601057189209	0.0006320022190265009	-0.02415807338200671	-0.02003605083409145	-0.3826154259837092	0.02524697421334025	-0.005125556670190867	-0.1232058896526166	0.1149855604391567	-0.004919529989042883	0.2823089147576204	5.520397642026883	3.477704094845225	-3.471438629299091	-9.484978701531634	-544.6783123161532	-45.79821729178968	-2.607730172792767	3.243394101284506	0.8096053666789897	1.738764289141829	-7.6251293268166	-0.1985808116992253	-1.228131971542391	0.01296407344106775	-3.807746023950658	-3.807746023951083	-0.4119440626419019	0.02061633508319084	0.3133581172563193	-0.09426971857743928	-8.381533201869945e-09	-9.29961779431546e-08	-3.044022921133944e-08	-2.007480790317667e-08	-1.667032685697808e-08	4.301937337768386e-08	-2.003606656925648e-08
1.04	-0.8444035616366415	-0.1543050496884791	0.621891906545227	2.004175001097277	-0.3394934890397796	0.04129993580018245	-0.4363114763009772	1.036145347121438	1.036145347121532	-0.01391331950047567	-0.1744773547766131	0.003756719860176827	0.08201292351985155	-0.05080184869836333	0.04086855477080981	0.1002901336854575	-0.277418347069771	-0.01576544544214609	-0.1054813097297375	0.0001472398257236598	-0.3255669233089206	-0.3255669233089197	-0.03225945223299016	0.0007068062150451509	-0.02107279308339644	-0.02102231607450038	-0.3823793047731564	0.02550374919156371	-0.005096581974539517	-0.1223376239920682	0.1144987038268881	-0.004783162558313409	0.2820984609909898	5.409061733214006	3.40660006359689	-3.424266155504411	-9.637214704354243	-544.2214573176111	-45.75515124413524	-2.67984116073361	3.280772022074186	0.8170148260940682	1.727946373793365	-7.637037801262752	-0.2110063100486625	-1.250934253778526	-0.02791113556509161	-3.789487999851299	-3.789487999851276	-0.415992202416708	-0.01885267449442394	0.3041245397647912	-0.1094577612926606	-6.342034928218477e-09	-1.02850039064218e-07	-4.415851295848596e-08	-2.784022312520329e-08	-1.828532697849568e-08	4.646126862475147e-08	-2.105010492554082e-08
